<svg width="1080" height="1080" viewBox="0 0 1080 1080" fill="none" xmlns="http://www.w3.org/2000/svg">
<rect x="124" y="272" width="608.108" height="341.805" rx="20" stroke="white" stroke-width="20"/>
<rect x="347.892" y="432.674" width="608.108" height="341.805" rx="20" fill="white" stroke="white" stroke-width="20"/>
<path d="M652.12 647.16C655.32 649.08 657.773 650.04 659.48 650.04C661.4 650.04 664.28 648.653 668.12 645.88C671.96 642.893 673.88 640.653 673.88 639.16C673.88 637.453 672.493 635.427 669.72 633.08C666.947 630.733 660.12 627.107 649.24 622.2C638.573 617.08 628.653 611.64 619.48 605.88C610.307 600.12 604.333 594.467 601.56 588.92C598.787 583.373 597.4 577.507 597.4 571.32C597.4 565.133 598.467 559.8 600.6 555.32C602.733 550.84 608.6 544.227 618.2 535.48C628.013 526.733 636.867 520.333 644.76 516.28V491H673.56V517.24C692.547 525.773 706.413 537.507 715.16 552.44L679 577.4L676.44 573.88C667.053 561.933 660.12 555.96 655.64 555.96C653.293 555.96 650.2 557.453 646.36 560.44C642.52 563.213 640.6 565.56 640.6 567.48C640.6 569.187 641.88 571.107 644.44 573.24C647.213 575.373 653.827 579.107 664.28 584.44C674.947 589.773 684.973 595.427 694.36 601.4C703.96 607.16 710.147 612.493 712.92 617.4C715.693 622.093 717.08 629.24 717.08 638.84C717.08 648.227 715.48 654.947 712.28 659C709.293 663.053 703.853 668.067 695.96 674.04C688.28 680.013 680.813 684.92 673.56 688.76V715H644.76V688.44C636.44 685.667 627.8 681.08 618.84 674.68C610.093 668.067 603.587 661.027 599.32 653.56L635.48 628.6L638.04 632.12C644.44 640.227 649.133 645.24 652.12 647.16Z" fill="black"/>
</svg>
