<svg width="1080" height="1080" viewBox="0 0 1080 1080" fill="none" xmlns="http://www.w3.org/2000/svg">
<path d="M971 540C971 780.903 777.929 976 540 976C302.071 976 109 780.903 109 540C109 299.097 302.071 104 540 104C777.929 104 971 299.097 971 540Z" stroke="white" stroke-width="20"/>
<path d="M835 677C835 842.241 702.593 976 539.5 976C376.407 976 244 842.241 244 677C244 635.672 252.274 603.729 266.658 578.928C281.012 554.178 301.834 535.874 328.051 522.398C381.008 495.176 455.214 488 539.5 488C623.786 488 697.992 495.176 750.949 522.398C777.166 535.874 797.988 554.178 812.342 578.928C826.726 603.729 835 635.672 835 677Z" stroke="white" stroke-width="20"/>
<circle cx="540" cy="321" r="127" stroke="white" stroke-width="20"/>
</svg>
