<svg width="1080" height="1080" viewBox="0 0 1080 1080" fill="none" xmlns="http://www.w3.org/2000/svg">
<rect x="236" y="369" width="608.108" height="341.805" rx="20" stroke="white" stroke-width="20"/>
<path d="M540.228 583.486C543.428 585.406 545.881 586.366 547.588 586.366C549.508 586.366 552.388 584.98 556.228 582.206C560.068 579.22 561.988 576.98 561.988 575.486C561.988 573.78 560.601 571.753 557.828 569.406C555.055 567.06 548.228 563.433 537.348 558.526C526.681 553.406 516.761 547.966 507.588 542.206C498.415 536.446 492.441 530.793 489.668 525.246C486.895 519.7 485.508 513.833 485.508 507.646C485.508 501.46 486.575 496.126 488.708 491.646C490.841 487.166 496.708 480.553 506.308 471.806C516.121 463.06 524.975 456.66 532.868 452.606V427.326H561.668V453.566C580.655 462.1 594.521 473.833 603.268 488.766L567.108 513.726L564.548 510.206C555.161 498.26 548.228 492.286 543.748 492.286C541.401 492.286 538.308 493.78 534.468 496.766C530.628 499.54 528.708 501.886 528.708 503.806C528.708 505.513 529.988 507.433 532.548 509.566C535.321 511.7 541.935 515.433 552.388 520.766C563.055 526.1 573.081 531.753 582.468 537.726C592.068 543.486 598.255 548.82 601.028 553.726C603.801 558.42 605.188 565.566 605.188 575.166C605.188 584.553 603.588 591.273 600.388 595.326C597.401 599.38 591.961 604.393 584.068 610.366C576.388 616.34 568.921 621.246 561.668 625.086V651.326H532.868V624.766C524.548 621.993 515.908 617.406 506.948 611.006C498.201 604.393 491.695 597.353 487.428 589.886L523.588 564.926L526.148 568.446C532.548 576.553 537.241 581.566 540.228 583.486Z" fill="#FFFCFC"/>
</svg>
